Input #0, mp3, from '162601200257970297935.mp3':
  Metadata:
    encoder         : Lavf58.41.100
  Duration: 00:02:24.72, start: 0.050113, bitrate: 64 kb/s
    Stream #0:0: Audio: mp3, 22050 Hz, stereo, fltp, 64 kb/s



Input #0, mp3, from 'Lame_Drivers_-_01_-_Frozen_Egg.mp3':
  Metadata:
    title           : Frozen Egg
    artist          : Lame Drivers
    track           : 1
    album           : Flexi-Book EP (preview)
    date            : 2013-10-18T11:10:47
    genre           : Pop
    copyright       : Attribution-Noncommercial-Share Alike 3.0 United States: http://creativecommons.org/licenses/by-nc-sa/3.0/us/
    TDAT            : 2013-10-18 11:10:47
    comment         : URL: http://freemusicarchive.org/music/Lame_Drivers/Flexidisc_EP/Lame_Drivers_-_Frozen_Egg 
                    : Comments: http://freemusicarchive.org/ 
                    : Curators: WFMU, Decoder Magazine 
                    : Copyright: Attribution-Noncommercial-Share Alike 3.0 United States: http://creativecommons.org/licenses/by-nc-sa/3.0/us/
    album_artist    : Lame Drivers
  Duration: 00:02:11.76, start: 0.023021, bitrate: 325 kb/s
    Stream #0:0: Audio: mp3, 48000 Hz, stereo, fltp, 320 kb/s
    Metadata:
      encoder         : LAME3.97 
    Side data:
      replaygain: track gain - -9.800000, track peak - unknown, album gain - unknown, album peak - unknown, 
    Stream #0:1: Video: mjpeg (Baseline), yuvj444p(pc, bt470bg/unknown/unknown), 300x300 [SAR 72:72 DAR 1:1], 90k tbr, 90k tbn, 90k tbc (attached pic)
    Metadata:
      comment         : Cover (front)
